<svg xmlns="http://www.w3.org/2000/svg" width="95" height="121" viewBox="0 0 95 121"><defs><mask id="8c7pb" width="2" height="2" x="-1" y="-1"><path fill="#fff" d="M0 0h95v116H0z"/><path d="M89.724 0A5.276 5.276 0 0 1 95 5.276V109.96a5.276 5.276 0 0 1-5.276 5.276H5.314A5.276 5.276 0 0 1 .04 109.96V22.894L20.624 0z"/></mask><filter id="8c7pa" width="115" height="141" x="-10" y="-10" filterUnits="userSpaceOnUse"><feOffset dy="5" in="SourceGraphic" result="FeOffset1025Out"/><feGaussianBlur in="FeOffset1025Out" result="FeGaussianBlur1026Out" stdDeviation="0 0"/></filter><linearGradient id="8c7pc" x1="10.73" x2="60" y1="116" y2="36.63" gradientUnits="userSpaceOnUse"><stop offset="0" stop-color="#43a06d"/><stop offset="1" stop-color="#37865a"/></linearGradient></defs><g><g><g><g filter="url(#8c7pa)"><path fill="none" d="M89.724 0A5.276 5.276 0 0 1 95 5.276V109.96a5.276 5.276 0 0 1-5.276 5.276H5.314A5.276 5.276 0 0 1 .04 109.96V22.894L20.624 0z" mask="url(&quot;#8c7pb&quot;)"/><path fill="#1d4630" fill-opacity=".75" d="M89.724 0A5.276 5.276 0 0 1 95 5.276V109.96a5.276 5.276 0 0 1-5.276 5.276H5.314A5.276 5.276 0 0 1 .04 109.96V22.894L20.624 0z"/></g><path fill="#43a06d" d="M89.724 0A5.276 5.276 0 0 1 95 5.276V109.96a5.276 5.276 0 0 1-5.276 5.276H5.314A5.276 5.276 0 0 1 .04 109.96V22.894L20.624 0z"/></g><g><path fill="#5fc18b" d="M.039 22.894H20.55V0z"/></g><g><path fill="#2e734d" d="M20.55 22.894L.04 43.5V22.894z"/></g><g><path fill="#21b162" d="M69.17 94.631L48.66 115.236V94.631z"/></g><g><path fill="#43a06d" d="M69.17 94.631L48.66 116h-51.66l.76-53.42L24.35 36.63h39.504v9.921h9.876"/><path fill="url(#8c7pc)" d="M69.17 94.631L48.66 116h-51.66l.76-53.42L24.35 36.63h39.504v9.921h9.876"/></g><g><path fill="#fff" d="M74.78 45.356v43.569l-8.427 8.327H34.368v-8.9H24.27v-52.06h40.536v9.064zM62.28 79.47h-6.313l.025 6.344zm-33.848 4.702h25.925l-.026-6.339h6.313v-37.36H28.432zm35.933 8.912l-.027-6.315h6.293V49.524h-5.825v30.474l-8.453 8.355H38.517v4.73zm7.901-4.685H65.97l.026 6.327zM34.485 52.597c0-.815.658-1.477 1.47-1.477h17.15c.81 0 1.47.662 1.47 1.477 0 .815-.66 1.477-1.47 1.477h-17.15c-.812 0-1.47-.662-1.47-1.477zm0 8.37c0-.814.658-1.476 1.47-1.476h17.15c.81 0 1.47.662 1.47 1.477 0 .815-.66 1.477-1.47 1.477h-17.15c-.812 0-1.47-.662-1.47-1.477zm20.09 8.367c0 .814-.66 1.477-1.47 1.477h-17.15c-.812 0-1.47-.662-1.47-1.477 0-.815.658-1.478 1.47-1.478h17.15c.81 0 1.47.663 1.47 1.478z"/></g></g></g></svg>