<svg xmlns="http://www.w3.org/2000/svg" width="102" height="127" viewBox="0 0 102 127"><defs><mask id="vq26b" width="2" height="2" x="-1" y="-1"><path fill="#fff" d="M0 0h102v122H0z"/><path d="M96.37 0C99.48 0 102 2.496 102 5.576v110.621c0 3.08-2.52 5.577-5.63 5.577H6.304c-3.109 0-5.629-2.497-5.629-5.577V24.193L22.64 0z"/></mask><filter id="vq26a" width="122" height="147" x="-10" y="-10" filterUnits="userSpaceOnUse"><feOffset dy="5" in="SourceGraphic" result="FeOffset1088Out"/><feGaussianBlur in="FeOffset1088Out" result="FeGaussianBlur1089Out" stdDeviation="0 0"/></filter><linearGradient id="vq26c" x1="9.73" x2="67" y1="125" y2="33.87" gradientUnits="userSpaceOnUse"><stop offset="0" stop-color="#e25842"/><stop offset="1" stop-color="#c34733"/></linearGradient></defs><g><g><g><g filter="url(#vq26a)"><path fill="none" d="M96.37 0C99.48 0 102 2.496 102 5.576v110.621c0 3.08-2.52 5.577-5.63 5.577H6.304c-3.109 0-5.629-2.497-5.629-5.577V24.193L22.64 0z" mask="url(&quot;#vq26b&quot;)"/><path fill="#b1220a" fill-opacity=".75" d="M96.37 0C99.48 0 102 2.496 102 5.576v110.621c0 3.08-2.52 5.577-5.63 5.577H6.304c-3.109 0-5.629-2.497-5.629-5.577V24.193L22.64 0z"/></g><path fill="#e25842" d="M96.37 0C99.48 0 102 2.496 102 5.576v110.621c0 3.08-2.52 5.577-5.63 5.577H6.304c-3.109 0-5.629-2.497-5.629-5.577V24.193L22.64 0z"/></g><g><path fill="#f06c57" d="M.674 24.193H22.56V0z"/></g><g><path fill="#c34733" d="M22.56 24.193L.675 45.967V24.193z"/></g><g><path fill="#1a9d55" d="M81.735 87.903L45.257 125H-3.379L-5 68.548l28.371-27.42H33.91l7.295-7.257-1.459 7.258h28.21v10.483h10.537"/><path fill="url(#vq26c)" d="M81.735 87.903L45.257 125H-3.379L-5 68.548l28.371-27.42H33.91l7.295-7.257-1.459 7.258h28.21v10.483h10.537"/></g><g><path fill="#fff" d="M26.132 41.013h14.071a3.474 3.474 0 0 1-.063-.662v-4.637c0-1.464.896-2.65 2.001-2.65h20.012c1.105 0 2.001 1.186 2.001 2.65v4.637c0 .229-.022.45-.063.662h14.071c3.316 0 6.004 2.67 6.004 5.962v35.772c0 3.293-2.688 5.962-6.004 5.962h-52.03c-3.316 0-6.004-2.669-6.004-5.962V46.975c0-3.292 2.688-5.962 6.004-5.962zm8.005 23.848c0 9.878 8.063 17.886 18.01 17.886 9.947 0 18.01-8.008 18.01-17.886s-8.063-17.886-18.01-17.886c-9.947 0-18.01 8.008-18.01 17.886zm18.01-11.924c6.631 0 12.007 5.339 12.007 11.924 0 6.586-5.376 11.924-12.007 11.924-6.631 0-12.007-5.338-12.007-11.924 0-6.585 5.376-11.924 12.007-11.924zm-4.002 11.924c0 2.195 1.792 3.975 4.002 3.975s4.002-1.78 4.002-3.975c0-2.195-1.791-3.974-4.002-3.974-2.21 0-4.002 1.78-4.002 3.974zm-4.003-25.835h16.01V37.04h-16.01z"/></g></g></g></svg>