<svg xmlns="http://www.w3.org/2000/svg" width="274" height="230" viewBox="0 0 274 230"><defs><mask id="cxn3b" width="2" height="2" x="-1" y="-1"><path fill="#fff" d="M1 0h272v227H1z"/><path d="M46.331-.002h181.334c15.022 0 27.2 12.196 27.2 27.24v118.04c0 3.185-.545 6.24-1.547 9.081h1.547v18.16h-27.2V27.239H46.33v145.28h-27.2v-18.16h1.548a27.232 27.232 0 0 1-1.548-9.08V27.239c0-15.045 12.178-27.24 27.2-27.24zm-27.2 190.68h235.734c10.015 0 18.134 8.131 18.134 18.16 0 10.03-17.186 18.16-27.2 18.16h-217.6c-10.016 0-27.201-8.13-27.201-18.16 0-10.029 8.119-18.16 18.133-18.16zm81.601 22.7c0 2.508 4.059 4.54 9.066 4.54h54.4c5.008 0 9.068-2.032 9.068-4.54 0-2.506-4.06-4.54-9.067-4.54h-54.4c-5.008 0-9.067 2.034-9.067 4.54zM76.12 106.528l12.765-12.842a8.99 8.99 0 0 1 12.766 0l16.73 16.83 53.932-54.251a8.988 8.988 0 0 1 12.765 0l12.766 12.84c3.524 3.547 3.524 9.296 0 12.841l-70.21 70.626a8.99 8.99 0 0 1-11.12 1.31 8.985 8.985 0 0 1-8.48-2.411L76.12 119.368c-3.525-3.546-3.525-9.295 0-12.84z"/></mask><filter id="cxn3a" width="294" height="251" x="-10" y="-11" filterUnits="userSpaceOnUse"><feOffset dy="2" in="SourceGraphic" result="FeOffset1164Out"/><feGaussianBlur in="FeOffset1164Out" result="FeGaussianBlur1165Out" stdDeviation="0.4 0.4"/></filter></defs><g><g><g filter="url(#cxn3a)"><path fill="none" d="M46.331-.002h181.334c15.022 0 27.2 12.196 27.2 27.24v118.04c0 3.185-.545 6.24-1.547 9.081h1.547v18.16h-27.2V27.239H46.33v145.28h-27.2v-18.16h1.548a27.232 27.232 0 0 1-1.548-9.08V27.239c0-15.045 12.178-27.24 27.2-27.24zm-27.2 190.68h235.734c10.015 0 18.134 8.131 18.134 18.16 0 10.03-17.186 18.16-27.2 18.16h-217.6c-10.016 0-27.201-8.13-27.201-18.16 0-10.029 8.119-18.16 18.133-18.16zm81.601 22.7c0 2.508 4.059 4.54 9.066 4.54h54.4c5.008 0 9.068-2.032 9.068-4.54 0-2.506-4.06-4.54-9.067-4.54h-54.4c-5.008 0-9.067 2.034-9.067 4.54zM76.12 106.528l12.765-12.842a8.99 8.99 0 0 1 12.766 0l16.73 16.83 53.932-54.251a8.988 8.988 0 0 1 12.765 0l12.766 12.84c3.524 3.547 3.524 9.296 0 12.841l-70.21 70.626a8.99 8.99 0 0 1-11.12 1.31 8.985 8.985 0 0 1-8.48-2.411L76.12 119.368c-3.525-3.546-3.525-9.295 0-12.84z" mask="url(&quot;#cxn3b&quot;)"/><path fill-opacity=".24" d="M46.331-.002h181.334c15.022 0 27.2 12.196 27.2 27.24v118.04c0 3.185-.545 6.24-1.547 9.081h1.547v18.16h-27.2V27.239H46.33v145.28h-27.2v-18.16h1.548a27.232 27.232 0 0 1-1.548-9.08V27.239c0-15.045 12.178-27.24 27.2-27.24zm-27.2 190.68h235.734c10.015 0 18.134 8.131 18.134 18.16 0 10.03-17.186 18.16-27.2 18.16h-217.6c-10.016 0-27.201-8.13-27.201-18.16 0-10.029 8.119-18.16 18.133-18.16zm81.601 22.7c0 2.508 4.059 4.54 9.066 4.54h54.4c5.008 0 9.068-2.032 9.068-4.54 0-2.506-4.06-4.54-9.067-4.54h-54.4c-5.008 0-9.067 2.034-9.067 4.54zM76.12 106.528l12.765-12.842a8.99 8.99 0 0 1 12.766 0l16.73 16.83 53.932-54.251a8.988 8.988 0 0 1 12.765 0l12.766 12.84c3.524 3.547 3.524 9.296 0 12.841l-70.21 70.626a8.99 8.99 0 0 1-11.12 1.31 8.985 8.985 0 0 1-8.48-2.411L76.12 119.368c-3.525-3.546-3.525-9.295 0-12.84z"/></g><path fill="#fff" d="M46.331-.002h181.334c15.022 0 27.2 12.196 27.2 27.24v118.04c0 3.185-.545 6.24-1.547 9.081h1.547v18.16h-27.2V27.239H46.33v145.28h-27.2v-18.16h1.548a27.232 27.232 0 0 1-1.548-9.08V27.239c0-15.045 12.178-27.24 27.2-27.24zm-27.2 190.68h235.734c10.015 0 18.134 8.131 18.134 18.16 0 10.03-17.186 18.16-27.2 18.16h-217.6c-10.016 0-27.201-8.13-27.201-18.16 0-10.029 8.119-18.16 18.133-18.16zm81.601 22.7c0 2.508 4.059 4.54 9.066 4.54h54.4c5.008 0 9.068-2.032 9.068-4.54 0-2.506-4.06-4.54-9.067-4.54h-54.4c-5.008 0-9.067 2.034-9.067 4.54zM76.12 106.528l12.765-12.842a8.99 8.99 0 0 1 12.766 0l16.73 16.83 53.932-54.251a8.988 8.988 0 0 1 12.765 0l12.766 12.84c3.524 3.547 3.524 9.296 0 12.841l-70.21 70.626a8.99 8.99 0 0 1-11.12 1.31 8.985 8.985 0 0 1-8.48-2.411L76.12 119.368c-3.525-3.546-3.525-9.295 0-12.84z"/></g></g></svg>